<svg xmlns="http://www.w3.org/2000/svg" width="1100" height="520" viewBox="0 0 1100 520">
<rect width="1100" height="520" fill="#fffdf8"/><text x="550" y="38" text-anchor="middle" font-family="Arial" font-size="24" font-weight="700" fill="#17324d">训练数据规模扩展（根据 Figure 5 重绘）</text>
<g stroke="#17324d" stroke-width="2" fill="none"><path d="M105 410H500M105 410V90"/><path d="M600 410H1000M600 410V90"/></g><g font-family="Arial" font-size="16" fill="#17324d"><text x="300" y="455" text-anchor="middle">SFT 样本数</text><text x="800" y="455" text-anchor="middle">RFT 样本数</text><text x="37" y="250" transform="rotate(-90 37 250)" text-anchor="middle">准确率（%）</text><text x="550" y="250" transform="rotate(-90 550 250)" text-anchor="middle">准确率（%）</text><text x="105" y="430">10K</text><text x="200" y="430">50K</text><text x="295" y="430">200K</text><text x="390" y="430">1M</text><text x="480" y="430">2M</text><text x="600" y="430">1K</text><text x="695" y="430">3K</text><text x="790" y="430">7K</text><text x="885" y="430">15K</text><text x="975" y="430">30K</text></g><polyline points="105,400 200,355 295,285 390,235 480,200" fill="none" stroke="#2e77b5" stroke-width="4"/><polyline points="600,390 695,335 790,285 885,220 975,145" fill="none" stroke="#df7f24" stroke-width="4"/><g fill="#2e77b5"><circle cx="105" cy="400" r="6"/><circle cx="200" cy="355" r="6"/><circle cx="295" cy="285" r="6"/><circle cx="390" cy="235" r="6"/><circle cx="480" cy="200" r="6"/></g><g fill="#df7f24"><circle cx="600" cy="390" r="6"/><circle cx="695" cy="335" r="6"/><circle cx="790" cy="285" r="6"/><circle cx="885" cy="220" r="6"/><circle cx="975" cy="145" r="6"/></g><g font-family="Arial" font-size="15" fill="#17324d"><text x="105" y="385">52.1</text><text x="286" y="270">57.7</text><text x="463" y="185">59.7</text><text x="600" y="375">58.5</text><text x="775" y="270">60.7</text><text x="958" y="130">63.1</text><text x="300" y="70" text-anchor="middle" fill="#2e77b5" font-weight="700">MLLM4D-Bench：10K→2M 持续提升</text><text x="800" y="70" text-anchor="middle" fill="#df7f24" font-weight="700">VLM4D：1K→30K 持续提升</text></g></svg>
