<svg xmlns="http://www.w3.org/2000/svg" width="1000" height="560" viewBox="0 0 1000 560"><rect width="1000" height="560" fill="#fff"/><text x="500" y="38" text-anchor="middle" font-family="Arial" font-size="25" font-weight="700" fill="#173b63">Figure 4 schematic — Stage 3 ablation</text><text x="500" y="66" text-anchor="middle" font-family="Arial" font-size="15" fill="#555">Values transcribed from the paper's chart; each benchmark reports accuracy (%).</text><line x1="100" y1="450" x2="930" y2="450" stroke="#555"/><line x1="100" y1="100" x2="100" y2="450" stroke="#555"/><g font-family="Arial" font-size="14" fill="#555"><text x="83" y="455">0</text><text x="75" y="385">20</text><text x="75" y="315">40</text><text x="75" y="245">60</text><text x="75" y="175">80</text><text x="75" y="105">100</text><text x="42" y="270" transform="rotate(-90 42 270)">Accuracy (%)</text></g><g font-family="Arial" font-size="15" text-anchor="middle"><rect x="150" y="265" width="45" height="185" fill="#aabddd"/><text x="172" y="255">52.8</text><rect x="205" y="228" width="45" height="222" fill="#6fa7d2"/><text x="227" y="218">63.5</text><rect x="260" y="251" width="45" height="199" fill="#c9a8c4"/><text x="282" y="241">56.9</text><rect x="315" y="213" width="45" height="237" fill="#7784b8"/><text x="337" y="203">67.5</text><text x="255" y="485">SPAR</text><rect x="430" y="307" width="45" height="143" fill="#aabddd"/><text x="452" y="297">41.0</text><rect x="485" y="236" width="45" height="214" fill="#6fa7d2"/><text x="507" y="226">61.2</text><rect x="540" y="263" width="45" height="187" fill="#c9a8c4"/><text x="562" y="253">53.3</text><rect x="595" y="209" width="45" height="241" fill="#7784b8"/><text x="617" y="199">68.8</text><text x="535" y="485">SPBench</text><rect x="710" y="381" width="45" height="69" fill="#aabddd"/><text x="732" y="371">19.8</text><rect x="765" y="309" width="45" height="141" fill="#6fa7d2"/><text x="787" y="299">40.2</text><rect x="820" y="321" width="45" height="129" fill="#c9a8c4"/><text x="842" y="311">36.8</text><rect x="875" y="288" width="45" height="162" fill="#7784b8"/><text x="897" y="278">46.3</text><text x="815" y="485">ViewSpatial</text></g><g font-family="Arial" font-size="14"><rect x="155" y="520" width="14" height="14" fill="#aabddd"/><text x="176" y="532">Stage 1+2</text><rect x="290" y="520" width="14" height="14" fill="#6fa7d2"/><text x="311" y="532">Stage 1+2+3</text><rect x="465" y="520" width="14" height="14" fill="#c9a8c4"/><text x="486" y="532">extra Stage 2, λt=λl=1, λg=.1</text><rect x="735" y="520" width="14" height="14" fill="#7784b8"/><text x="756" y="532">extra Stage 2, λt=λl=.1, λg=.01</text></g></svg>